<svg width="41" height="41" viewBox="0 0 41 41" fill="none" xmlns="http://www.w3.org/2000/svg">
<path d="M14.8386 35.1063H13.7576V32.5438H12.7406V31.8231H12.9168C13.2104 31.8231 13.4453 31.759 13.6215 31.6309C13.7816 31.5108 13.8857 31.3106 13.9418 31.0463L13.9498 31.0063H14.8386V35.1063ZM19.0427 35.1063H15.7756C15.7644 34.7825 15.8479 34.4624 16.0158 34.1854C16.176 33.9505 16.4642 33.6889 16.8806 33.4006L17.5213 32.9522C17.6516 32.8664 17.7655 32.7579 17.8576 32.6319C17.9267 32.5304 17.963 32.4102 17.9617 32.2875C17.9661 32.215 17.9547 32.1424 17.9285 32.0747C17.9022 32.007 17.8617 31.9457 17.8095 31.8951C17.6986 31.8 17.5552 31.7512 17.4092 31.759C17.0141 31.759 16.8166 31.9859 16.8166 32.4397V32.5278H15.8396V32.3996C15.8396 31.9298 15.9758 31.5615 16.248 31.2946C16.5203 31.0276 16.9127 30.8942 17.4252 30.8942C17.911 30.8942 18.2954 31.0116 18.5783 31.2465C18.8612 31.4814 19.0054 31.8071 19.0107 32.2235C19.0172 32.4783 18.9475 32.7292 18.8105 32.9442C18.637 33.1911 18.4133 33.3985 18.1539 33.5528L17.4492 34.0012C17.3131 34.0813 17.241 34.1614 17.233 34.2254H19.0347L19.0427 35.1063ZM21.325 33.8971H19.6754V33.1043H21.325V33.8971ZM23.8154 35.1063H22.7424V32.5438H21.7254V31.8231H21.9015C22.1952 31.8231 22.4274 31.759 22.5982 31.6309C22.7584 31.5108 22.8705 31.3106 22.9185 31.0463L22.9345 31.0063H23.8154V35.1063ZM26.3859 35.2104C25.9161 35.2104 25.5317 35.1036 25.2328 34.8901C25.0847 34.7825 24.9611 34.6449 24.87 34.4862C24.7789 34.3274 24.7224 34.1513 24.7043 33.9692L25.7293 33.8891C25.7555 34.0333 25.8357 34.1622 25.9535 34.2494C26.0785 34.3339 26.2272 34.376 26.3779 34.3696C26.4682 34.3747 26.5586 34.3617 26.6439 34.3315C26.7291 34.3012 26.8075 34.2543 26.8744 34.1934C26.9915 34.0687 27.0567 33.904 27.0567 33.7329C27.0567 33.5619 26.9915 33.3972 26.8744 33.2725C26.8075 33.2116 26.7291 33.1647 26.6439 33.1344C26.5586 33.1042 26.4682 33.0912 26.3779 33.0963C26.2714 33.0929 26.1654 33.1125 26.0673 33.154C25.9691 33.1955 25.8811 33.2578 25.8093 33.3365L24.8404 33.2565L25.2168 31.0063H27.7873V31.8631H25.9855L25.8494 32.5678L25.8654 32.5758C26.1097 32.4077 26.4019 32.3234 26.6982 32.3356C27.1146 32.3356 27.4483 32.4584 27.6992 32.7039C27.9501 32.9495 28.0756 33.2832 28.0756 33.7049C28.0756 34.164 27.9234 34.5297 27.6191 34.802C27.3148 35.0742 26.9011 35.2077 26.3779 35.2024L26.3859 35.2104Z" fill="#374251"></path>
<g clip-path="url(#clip0_63_879)">
<path d="M20.4904 22.6245C23.3386 22.6245 25.6474 20.3156 25.6474 17.4675C25.6474 14.6193 23.3386 12.3104 20.4904 12.3104C17.6423 12.3104 15.3334 14.6193 15.3334 17.4675C15.3334 20.3156 17.6423 22.6245 20.4904 22.6245Z" fill="url(#paint0_linear_63_879)" stroke="#F8AF18" stroke-width="0.368359" stroke-miterlimit="10"></path>
<path d="M26.147 11.8107L28.3043 9.65332M12.6762 25.2815L14.8279 23.1298M28.4968 17.4674L31.5432 17.4674M9.43727 17.4674L12.495 17.4674M20.4959 9.46646L20.4902 6.41443M20.4902 28.5204V25.4627M14.8335 11.822L12.6705 9.65898M28.2987 25.2871L26.147 23.1354" stroke="#FBBF24" stroke-width="1.47344" stroke-miterlimit="10" stroke-linecap="round"></path>
</g>
<defs>
<linearGradient id="paint0_linear_63_879" x1="17.9119" y1="12.9991" x2="23.0689" y2="21.9358" gradientUnits="userSpaceOnUse">
<stop stop-color="#FBBF24"></stop>
<stop offset="0.5" stop-color="#FBBF24"></stop>
<stop offset="1" stop-color="#F59E0B"></stop>
</linearGradient>
<clipPath id="clip0_63_879">
<rect width="23.575" height="23.575" fill="white" transform="translate(8.70288 5.67993)"></rect>
</clipPath>
</defs>
</svg>